<svg xmlns="http://www.w3.org/2000/svg" viewBox="0 0 36.7 36.6"><defs><style>.cls-1{fill:#020202;}</style></defs><title>Asset 2</title><g id="Layer_2" data-name="Layer 2"><g id="Layer_1-2" data-name="Layer 1"><g id="_01-SINGLE-GREY" data-name="01-SINGLE-GREY"><path id="Instagram" class="cls-1" d="M32.3,0H4.4A4.35,4.35,0,0,0,0,4.3v28a4.35,4.35,0,0,0,4.4,4.3H32.3a4.35,4.35,0,0,0,4.4-4.3V4.3A4.49,4.49,0,0,0,32.3,0Zm-6,5.8a1.11,1.11,0,0,1,1.1-1.1h3.4a1.11,1.11,0,0,1,1.1,1.1V9.2a1.11,1.11,0,0,1-1.1,1.1H27.4a1.11,1.11,0,0,1-1.1-1.1Zm-8,5.6a7,7,0,1,1,0,14,7,7,0,0,1,0-14ZM33.2,32.1a1.11,1.11,0,0,1-1.1,1.1H4.6a1.11,1.11,0,0,1-1.1-1.1V14.9H8.1a7.19,7.19,0,0,0-.8,3.5,11.2,11.2,0,0,0,22.4,0,5.59,5.59,0,0,0-.9-3.5h4.6V32.1Z"/></g></g></g></svg>