<svg xmlns="http://www.w3.org/2000/svg" viewBox="0 0 38 34.5"><defs><style>.cls-1{fill:#070707;stroke:#050505;stroke-miterlimit:10;}</style></defs><title>Asset 3</title><g id="Layer_2" data-name="Layer 2"><g id="Layer_1-2" data-name="Layer 1"><g id="_01-SINGLE-GREY" data-name="01-SINGLE-GREY"><g id="LinkedIn"><rect class="cls-1" x="1.5" y="11.2" width="7.2" height="22.8"/><path class="cls-1" d="M28.3,11c-4.1,0-6.7,2.2-7.2,3.8V11.2H13c.1,1.9,0,22.8,0,22.8h8.1V21.7a5.55,5.55,0,0,1,.2-1.9A4.08,4.08,0,0,1,25.2,17c2.8,0,4.1,2.1,4.1,5.2V34h8.2V21.3C37.4,14.3,33.4,11,28.3,11Z"/><path class="cls-1" d="M4.9.5C2.2.5.5,2.2.5,4.5S2.2,8.4,4.8,8.4h.1c2.7,0,4.4-1.7,4.4-4A4,4,0,0,0,4.9.5Z"/></g></g></g></g></svg>