<svg xmlns="http://www.w3.org/2000/svg" viewBox="0 0 571 543"><title>Asset 1</title><g id="Layer_2" data-name="Layer 2"><g id="Layer_1-2" data-name="Layer 1"><path d="M568.43,432.83l-2.83-8.14c-6.74-19-28.8-38.88-49.07-44.11l-75-19.49c-20.35-5.26-49.36,1.82-64.24,16l-27.15,25.82c-98.66-25.36-176-99-202.67-192.78l27.15-25.82c14.88-14.15,22.33-41.72,16.79-61.08L170.94,51.82c-5.53-19.32-26.45-40.3-46.42-46.64L116,2.45c-20-6.34-48.54.07-63.43,14.22L11.92,55.33C4.67,62.2,0,81.83,0,81.9-1.38,204.54,49.16,322.71,140.38,409.46,231.36,496,355.13,544,483.71,543c.66,0,21.92-4.34,29.16-11.2l40.61-38.63c14.88-14.15,21.61-41.3,14.95-60.33Z"/></g></g></svg>